<svg width="24" height="24" viewBox="0 0 24 24" fill="none" xmlns="http://www.w3.org/2000/svg">
<mask id="mask0_779_7608" style="mask-type:alpha" maskUnits="userSpaceOnUse" x="0" y="0" width="24" height="24">
<rect width="24" height="24" fill="#D9D9D9"/>
</mask>
<g mask="url(#mask0_779_7608)">
<path d="M12 12C10.7625 12 9.70313 11.5594 8.82188 10.6781C7.94063 9.79688 7.5 8.7375 7.5 7.5C7.5 6.2625 7.94063 5.20312 8.82188 4.32188C9.70313 3.44063 10.7625 3 12 3C13.2375 3 14.2969 3.44063 15.1781 4.32188C16.0594 5.20312 16.5 6.2625 16.5 7.5C16.5 8.7375 16.0594 9.79688 15.1781 10.6781C14.2969 11.5594 13.2375 12 12 12ZM3 21V17.85C3 17.2125 3.16406 16.6266 3.49219 16.0922C3.82031 15.5578 4.25625 15.15 4.8 14.8688C5.9625 14.2875 7.14375 13.8516 8.34375 13.5609C9.54375 13.2703 10.7625 13.125 12 13.125C13.2375 13.125 14.4563 13.2703 15.6562 13.5609C16.8562 13.8516 18.0375 14.2875 19.2 14.8688C19.7438 15.15 20.1797 15.5578 20.5078 16.0922C20.8359 16.6266 21 17.2125 21 17.85V21H3ZM5.25 18.75H18.75V17.85C18.75 17.6438 18.6984 17.4563 18.5953 17.2875C18.4922 17.1187 18.3562 16.9875 18.1875 16.8938C17.175 16.3875 16.1531 16.0078 15.1219 15.7547C14.0906 15.5016 13.05 15.375 12 15.375C10.95 15.375 9.90937 15.5016 8.87812 15.7547C7.84687 16.0078 6.825 16.3875 5.8125 16.8938C5.64375 16.9875 5.50781 17.1187 5.40469 17.2875C5.30156 17.4563 5.25 17.6438 5.25 17.85V18.75ZM12 9.75C12.6187 9.75 13.1484 9.52969 13.5891 9.08906C14.0297 8.64844 14.25 8.11875 14.25 7.5C14.25 6.88125 14.0297 6.35156 13.5891 5.91094C13.1484 5.47031 12.6187 5.25 12 5.25C11.3813 5.25 10.8516 5.47031 10.4109 5.91094C9.97031 6.35156 9.75 6.88125 9.75 7.5C9.75 8.11875 9.97031 8.64844 10.4109 9.08906C10.8516 9.52969 11.3813 9.75 12 9.75Z" fill="#020715"/>
</g>
</svg>
