<svg width="16" height="16" viewBox="0 0 16 16" fill="none" xmlns="http://www.w3.org/2000/svg">
<g clip-path="url(#clip0_31_3139)">
<path d="M8 0.197998C3.58 0.197998 0 3.78 0 8.198C0 11.7333 2.292 14.7313 5.47 15.788C5.87 15.8633 6.01667 15.616 6.01667 15.4033C6.01667 15.2133 6.01 14.71 6.00667 14.0433C3.78133 14.526 3.312 12.97 3.312 12.97C2.948 12.0467 2.422 11.8 2.422 11.8C1.69733 11.304 2.478 11.314 2.478 11.314C3.28133 11.37 3.70333 12.138 3.70333 12.138C4.41667 13.3613 5.576 13.008 6.03333 12.8033C6.10533 12.286 6.31133 11.9333 6.54 11.7333C4.76333 11.5333 2.896 10.8453 2.896 7.78C2.896 6.90666 3.206 6.19333 3.71933 5.63333C3.62933 5.43133 3.35933 4.618 3.78933 3.516C3.78933 3.516 4.45933 3.30133 5.98933 4.336C6.62933 4.158 7.30933 4.07 7.98933 4.066C8.66933 4.07 9.34933 4.158 9.98933 4.336C11.5093 3.30133 12.1793 3.516 12.1793 3.516C12.6093 4.618 12.3393 5.43133 12.2593 5.63333C12.7693 6.19333 13.0793 6.90666 13.0793 7.78C13.0793 10.8533 11.2093 11.53 9.42933 11.7267C9.70933 11.9667 9.96933 12.4573 9.96933 13.2067C9.96933 14.2773 9.95933 15.1373 9.95933 15.3973C9.95933 15.6073 10.0993 15.8573 10.5093 15.7773C13.71 14.728 16 11.728 16 8.198C16 3.78 12.418 0.197998 8 0.197998Z" fill="#020715"/>
</g>
<defs>
<clipPath id="clip0_31_3139">
<rect width="16" height="16" fill="white"/>
</clipPath>
</defs>
</svg>
