<svg width="79" height="25" viewBox="0 0 79 25" fill="none" xmlns="http://www.w3.org/2000/svg">
<g clip-path="url(#clip0_202_1377)">
<path d="M14.6383 21.0399V23.9999H1.83832V21.0399H6.52631V7.55191C6.52631 7.01858 6.54232 6.46924 6.57432 5.90391L3.24632 8.68791C3.05432 8.83724 2.86232 8.93324 2.67032 8.97591C2.48898 9.00791 2.31298 9.00791 2.14232 8.97591C1.98232 8.94391 1.83832 8.89058 1.71032 8.81591C1.58232 8.73058 1.48632 8.63991 1.42232 8.54391L0.174316 6.83191L7.23032 0.831909H10.4783V21.0399H14.6383ZM18.0168 21.8239C18.0168 21.4932 18.0755 21.1786 18.1928 20.8799C18.3208 20.5812 18.4915 20.3252 18.7048 20.1119C18.9182 19.8986 19.1742 19.7279 19.4728 19.5999C19.7715 19.4719 20.0915 19.4079 20.4328 19.4079C20.7742 19.4079 21.0888 19.4719 21.3768 19.5999C21.6755 19.7279 21.9315 19.8986 22.1448 20.1119C22.3688 20.3252 22.5448 20.5812 22.6728 20.8799C22.8008 21.1786 22.8648 21.4932 22.8648 21.8239C22.8648 22.1652 22.8008 22.4852 22.6728 22.7839C22.5448 23.0719 22.3688 23.3226 22.1448 23.5359C21.9315 23.7492 21.6755 23.9146 21.3768 24.0319C21.0888 24.1599 20.7742 24.2239 20.4328 24.2239C20.0915 24.2239 19.7715 24.1599 19.4728 24.0319C19.1742 23.9146 18.9182 23.7492 18.7048 23.5359C18.4915 23.3226 18.3208 23.0719 18.1928 22.7839C18.0755 22.4852 18.0168 22.1652 18.0168 21.8239ZM32.5866 9.26391L31.7866 10.2559C32.2346 10.0319 32.7146 9.86124 33.2266 9.74391C33.7492 9.61591 34.3092 9.55191 34.9066 9.55191C35.7812 9.55191 36.6292 9.69591 37.4506 9.98391C38.2826 10.2719 39.0132 10.7092 39.6426 11.2959C40.2719 11.8719 40.7786 12.5919 41.1626 13.4559C41.5466 14.3199 41.7386 15.3279 41.7386 16.4799C41.7386 17.5572 41.5412 18.5706 41.1466 19.5199C40.7519 20.4586 40.1972 21.2799 39.4826 21.9839C38.7679 22.6879 37.9039 23.2426 36.8906 23.6479C35.8879 24.0532 34.7786 24.2559 33.5626 24.2559C32.3252 24.2559 31.2159 24.0586 30.2346 23.6639C29.2532 23.2692 28.4159 22.7199 27.7226 22.0159C27.0292 21.3012 26.4959 20.4479 26.1226 19.4559C25.7599 18.4532 25.5786 17.3439 25.5786 16.1279C25.5786 15.0399 25.7972 13.9252 26.2346 12.7839C26.6826 11.6319 27.3706 10.4372 28.2986 9.19991L33.8186 1.79191C34.0106 1.53591 34.2879 1.31724 34.6506 1.13591C35.0239 0.954576 35.4506 0.863908 35.9306 0.863908H39.4506L32.5866 9.26391ZM33.4826 21.0239C34.1119 21.0239 34.6879 20.9172 35.2106 20.7039C35.7439 20.4906 36.1972 20.1919 36.5706 19.8079C36.9546 19.4239 37.2532 18.9759 37.4666 18.4639C37.6799 17.9412 37.7866 17.3759 37.7866 16.7679C37.7866 16.1066 37.6852 15.5146 37.4826 14.9919C37.2799 14.4586 36.9919 14.0106 36.6186 13.6479C36.2452 13.2746 35.7972 12.9919 35.2746 12.7999C34.7519 12.6079 34.1759 12.5119 33.5466 12.5119C32.9172 12.5119 32.3466 12.6186 31.8346 12.8319C31.3226 13.0452 30.8852 13.3439 30.5226 13.7279C30.1599 14.1012 29.8772 14.5492 29.6746 15.0719C29.4719 15.5839 29.3706 16.1386 29.3706 16.7359C29.3706 17.3759 29.4559 17.9626 29.6266 18.4959C29.8079 19.0186 30.0692 19.4666 30.4106 19.8399C30.7626 20.2132 31.1946 20.5066 31.7066 20.7199C32.2186 20.9226 32.8106 21.0239 33.4826 21.0239ZM59.3571 21.0399V23.9999H46.5571V21.0399H51.2451V7.55191C51.2451 7.01858 51.2611 6.46924 51.2931 5.90391L47.9651 8.68791C47.7731 8.83724 47.5811 8.93324 47.3891 8.97591C47.2077 9.00791 47.0317 9.00791 46.8611 8.97591C46.7011 8.94391 46.5571 8.89058 46.4291 8.81591C46.3011 8.73058 46.2051 8.63991 46.1411 8.54391L44.8931 6.83191L51.9491 0.831909H55.1971V21.0399H59.3571ZM70.6396 21.1679C71.2902 21.1679 71.8609 21.0772 72.3516 20.8959C72.8422 20.7039 73.2529 20.4426 73.5836 20.1119C73.9249 19.7812 74.1809 19.3866 74.3516 18.9279C74.5222 18.4692 74.6076 17.9732 74.6076 17.4399C74.6076 16.1706 74.2556 15.2106 73.5516 14.5599C72.8476 13.9092 71.8769 13.5839 70.6396 13.5839C69.4022 13.5839 68.4316 13.9092 67.7276 14.5599C67.0236 15.2106 66.6716 16.1706 66.6716 17.4399C66.6716 17.9732 66.7569 18.4692 66.9276 18.9279C67.0982 19.3866 67.3489 19.7812 67.6796 20.1119C68.0209 20.4426 68.4369 20.7039 68.9276 20.8959C69.4182 21.0772 69.9889 21.1679 70.6396 21.1679ZM70.6396 3.58391C70.0529 3.58391 69.5462 3.67458 69.1196 3.85591C68.6929 4.03724 68.3356 4.28258 68.0476 4.59191C67.7702 4.89058 67.5622 5.23724 67.4236 5.63191C67.2956 6.02658 67.2316 6.44258 67.2316 6.87991C67.2316 7.33858 67.2849 7.78658 67.3916 8.22391C67.5089 8.65058 67.7009 9.03458 67.9676 9.37591C68.2342 9.70658 68.5862 9.97324 69.0236 10.1759C69.4609 10.3786 69.9996 10.4799 70.6396 10.4799C71.2796 10.4799 71.8182 10.3786 72.2556 10.1759C72.6929 9.97324 73.0449 9.70658 73.3116 9.37591C73.5782 9.03458 73.7649 8.65058 73.8716 8.22391C73.9889 7.78658 74.0476 7.33858 74.0476 6.87991C74.0476 6.44258 73.9782 6.02658 73.8396 5.63191C73.7009 5.23724 73.4929 4.89058 73.2156 4.59191C72.9382 4.28258 72.5862 4.03724 72.1596 3.85591C71.7329 3.67458 71.2262 3.58391 70.6396 3.58391ZM74.5436 11.9359C75.9516 12.3946 76.9916 13.0986 77.6636 14.0479C78.3356 14.9866 78.6716 16.1386 78.6716 17.5039C78.6716 18.5279 78.4742 19.4559 78.0796 20.2879C77.6956 21.1199 77.1516 21.8292 76.4476 22.4159C75.7436 23.0026 74.8956 23.4559 73.9036 23.7759C72.9222 24.0959 71.8342 24.2559 70.6396 24.2559C69.4449 24.2559 68.3516 24.0959 67.3596 23.7759C66.3782 23.4559 65.5356 23.0026 64.8316 22.4159C64.1276 21.8292 63.5782 21.1199 63.1836 20.2879C62.7996 19.4559 62.6076 18.5279 62.6076 17.5039C62.6076 16.1386 62.9436 14.9866 63.6156 14.0479C64.2876 13.0986 65.3276 12.3946 66.7356 11.9359C65.6156 11.4666 64.7729 10.7999 64.2076 9.93591C63.6529 9.07191 63.3756 8.03191 63.3756 6.81591C63.3756 5.94124 63.5516 5.12524 63.9036 4.36791C64.2662 3.61058 64.7676 2.95458 65.4076 2.39991C66.0476 1.83458 66.8102 1.39724 67.6956 1.08791C68.5916 0.76791 69.5729 0.60791 70.6396 0.60791C71.7062 0.60791 72.6822 0.76791 73.5676 1.08791C74.4636 1.39724 75.2316 1.83458 75.8716 2.39991C76.5116 2.95458 77.0076 3.61058 77.3596 4.36791C77.7222 5.12524 77.9036 5.94124 77.9036 6.81591C77.9036 8.03191 77.6209 9.07191 77.0556 9.93591C76.5009 10.7999 75.6636 11.4666 74.5436 11.9359Z" fill="#020715"/>
</g>
<defs>
<clipPath id="clip0_202_1377">
<rect width="79" height="25" fill="currentColor"/>
</clipPath>
</defs>
</svg>
