<svg width="16" height="16" viewBox="0 0 16 16" fill="none" xmlns="http://www.w3.org/2000/svg">
<g clip-path="url(#clip0_31_3141)">
<path d="M2.97259 2.80534C3.46993 3.20934 3.65659 3.17867 4.59126 3.116L13.4013 2.58734C13.5879 2.58734 13.4326 2.40067 13.3706 2.37L11.9066 1.312C11.6266 1.09467 11.2526 0.845336 10.5366 0.907336L2.00659 1.53C1.69593 1.56067 1.63326 1.71667 1.75726 1.84067L2.97259 2.80534ZM3.50126 4.85867V14.128C3.50126 14.626 3.74993 14.8127 4.31059 14.7813L13.9926 14.2213C14.5533 14.1907 14.6159 13.848 14.6159 13.4433V4.236C14.6159 3.832 14.4606 3.614 14.1173 3.64467L3.99926 4.236C3.62593 4.26734 3.50126 4.45467 3.50126 4.85867ZM13.0593 5.35534C13.1213 5.63534 13.0593 5.91534 12.7793 5.94734L12.3126 6.04067V12.8833C11.9073 13.1013 11.5339 13.226 11.2226 13.226C10.7239 13.226 10.5993 13.07 10.2259 12.604L7.17459 7.81334V12.448L8.13993 12.6667C8.13993 12.6667 8.13993 13.2267 7.36126 13.2267L5.21326 13.3507C5.15126 13.2267 5.21326 12.9153 5.43126 12.8533L5.99126 12.698V6.56934L5.21459 6.50667C5.15193 6.22667 5.30793 5.82267 5.74326 5.79134L8.04726 5.636L11.2233 10.4887V6.19534L10.4133 6.10267C10.3513 5.76 10.5999 5.51134 10.9113 5.48067L13.0593 5.35534ZM1.29059 0.690002L10.1639 0.0366691C11.2533 -0.0566642 11.5339 0.00533581 12.2186 0.503336L15.0513 2.494C15.5179 2.836 15.6739 2.92934 15.6739 3.30267V14.2213C15.6739 14.9053 15.4253 15.3107 14.5539 15.372L4.24859 15.9947C3.59526 16.026 3.28326 15.9327 2.94059 15.4967L0.854594 12.79C0.481261 12.292 0.325928 11.9193 0.325928 11.4833V1.778C0.325928 1.21867 0.575261 0.751336 1.29059 0.690002Z" fill="#020715"/>
</g>
<defs>
<clipPath id="clip0_31_3141">
<rect width="16" height="16" fill="white"/>
</clipPath>
</defs>
</svg>
